<svg width="200" height="27" viewBox="0 0 200 27" fill="none" xmlns="http://www.w3.org/2000/svg">
<path d="M6.388 5.66V10.772H14.632V15.524H6.388V21.068H15.712V26H0.232V0.727999H15.712V5.66H6.388ZM28.7446 20.24L33.1006 5.912H39.6526L32.5246 26H24.9286L17.8006 5.912H24.3886L28.7446 20.24ZM61.1797 15.632C61.1797 16.208 61.1437 16.808 61.0717 17.432H47.1397C47.2357 18.68 47.6317 19.64 48.3277 20.312C49.0477 20.96 49.9237 21.284 50.9557 21.284C52.4917 21.284 53.5597 20.636 54.1597 19.34H60.7117C60.3757 20.66 59.7637 21.848 58.8757 22.904C58.0117 23.96 56.9197 24.788 55.5997 25.388C54.2797 25.988 52.8037 26.288 51.1717 26.288C49.2037 26.288 47.4517 25.868 45.9157 25.028C44.3797 24.188 43.1797 22.988 42.3157 21.428C41.4517 19.868 41.0197 18.044 41.0197 15.956C41.0197 13.868 41.4397 12.044 42.2797 10.484C43.1437 8.924 44.3437 7.724 45.8797 6.884C47.4157 6.044 49.1797 5.624 51.1717 5.624C53.1157 5.624 54.8437 6.032 56.3557 6.848C57.8677 7.664 59.0437 8.828 59.8837 10.34C60.7477 11.852 61.1797 13.616 61.1797 15.632ZM54.8797 14.012C54.8797 12.956 54.5197 12.116 53.7997 11.492C53.0797 10.868 52.1797 10.556 51.0997 10.556C50.0677 10.556 49.1917 10.856 48.4717 11.456C47.7757 12.056 47.3437 12.908 47.1757 14.012H54.8797ZM76.6673 5.696C79.0193 5.696 80.8913 6.464 82.2833 8C83.6993 9.512 84.4073 11.6 84.4073 14.264V26H78.2873V15.092C78.2873 13.748 77.9393 12.704 77.2433 11.96C76.5473 11.216 75.6113 10.844 74.4353 10.844C73.2593 10.844 72.3233 11.216 71.6273 11.96C70.9313 12.704 70.5833 13.748 70.5833 15.092V26H64.4273V5.912H70.5833V8.576C71.2073 7.688 72.0473 6.992 73.1033 6.488C74.1593 5.96 75.3473 5.696 76.6673 5.696ZM99.8811 20.78V26H96.7491C94.5171 26 92.7771 25.46 91.5291 24.38C90.2811 23.276 89.6571 21.488 89.6571 19.016V11.024H87.2091V5.912H89.6571V1.016H95.8131V5.912H99.8451V11.024H95.8131V19.088C95.8131 19.688 95.9571 20.12 96.2451 20.384C96.5331 20.648 97.0131 20.78 97.6851 20.78H99.8811ZM111.482 26.288C109.73 26.288 108.17 25.988 106.802 25.388C105.434 24.788 104.354 23.972 103.562 22.94C102.77 21.884 102.326 20.708 102.23 19.412H108.314C108.386 20.108 108.71 20.672 109.286 21.104C109.862 21.536 110.57 21.752 111.41 21.752C112.178 21.752 112.766 21.608 113.174 21.32C113.606 21.008 113.822 20.612 113.822 20.132C113.822 19.556 113.522 19.136 112.922 18.872C112.322 18.584 111.35 18.272 110.006 17.936C108.566 17.6 107.366 17.252 106.406 16.892C105.446 16.508 104.618 15.92 103.922 15.128C103.226 14.312 102.878 13.22 102.878 11.852C102.878 10.7 103.19 9.656 103.814 8.72C104.462 7.76 105.398 7.004 106.622 6.452C107.87 5.9 109.346 5.624 111.05 5.624C113.57 5.624 115.55 6.248 116.99 7.496C118.454 8.744 119.294 10.4 119.51 12.464H113.822C113.726 11.768 113.414 11.216 112.886 10.808C112.382 10.4 111.71 10.196 110.87 10.196C110.15 10.196 109.598 10.34 109.214 10.628C108.83 10.892 108.638 11.264 108.638 11.744C108.638 12.32 108.938 12.752 109.538 13.04C110.162 13.328 111.122 13.616 112.418 13.904C113.906 14.288 115.118 14.672 116.054 15.056C116.99 15.416 117.806 16.016 118.502 16.856C119.222 17.672 119.594 18.776 119.618 20.168C119.618 21.344 119.282 22.4 118.61 23.336C117.962 24.248 117.014 24.968 115.766 25.496C114.542 26.024 113.114 26.288 111.482 26.288Z" fill="#2C49FE"/>
<path d="M139.836 0.727999V5.66H129.54V10.988H137.244V15.776H129.54V26H123.384V0.727999H139.836ZM149.228 9.26C149.948 8.156 150.848 7.292 151.928 6.668C153.008 6.02 154.208 5.696 155.528 5.696V12.212H153.836C152.3 12.212 151.148 12.548 150.38 13.22C149.612 13.868 149.228 15.02 149.228 16.676V26H143.072V5.912H149.228V9.26ZM177.406 15.632C177.406 16.208 177.37 16.808 177.298 17.432H163.366C163.462 18.68 163.858 19.64 164.554 20.312C165.274 20.96 166.15 21.284 167.182 21.284C168.718 21.284 169.786 20.636 170.386 19.34H176.938C176.602 20.66 175.99 21.848 175.102 22.904C174.238 23.96 173.146 24.788 171.826 25.388C170.506 25.988 169.03 26.288 167.398 26.288C165.43 26.288 163.678 25.868 162.142 25.028C160.606 24.188 159.406 22.988 158.542 21.428C157.678 19.868 157.246 18.044 157.246 15.956C157.246 13.868 157.666 12.044 158.506 10.484C159.37 8.924 160.57 7.724 162.106 6.884C163.642 6.044 165.406 5.624 167.398 5.624C169.342 5.624 171.07 6.032 172.582 6.848C174.094 7.664 175.27 8.828 176.11 10.34C176.974 11.852 177.406 13.616 177.406 15.632ZM171.106 14.012C171.106 12.956 170.746 12.116 170.026 11.492C169.306 10.868 168.406 10.556 167.326 10.556C166.294 10.556 165.418 10.856 164.698 11.456C164.002 12.056 163.57 12.908 163.402 14.012H171.106ZM199.59 15.632C199.59 16.208 199.554 16.808 199.482 17.432H185.55C185.646 18.68 186.042 19.64 186.738 20.312C187.458 20.96 188.334 21.284 189.366 21.284C190.902 21.284 191.97 20.636 192.57 19.34H199.122C198.786 20.66 198.174 21.848 197.286 22.904C196.422 23.96 195.33 24.788 194.01 25.388C192.69 25.988 191.214 26.288 189.582 26.288C187.614 26.288 185.862 25.868 184.326 25.028C182.79 24.188 181.59 22.988 180.726 21.428C179.862 19.868 179.43 18.044 179.43 15.956C179.43 13.868 179.85 12.044 180.69 10.484C181.554 8.924 182.754 7.724 184.29 6.884C185.826 6.044 187.59 5.624 189.582 5.624C191.526 5.624 193.254 6.032 194.766 6.848C196.278 7.664 197.454 8.828 198.294 10.34C199.158 11.852 199.59 13.616 199.59 15.632ZM193.29 14.012C193.29 12.956 192.93 12.116 192.21 11.492C191.49 10.868 190.59 10.556 189.51 10.556C188.478 10.556 187.602 10.856 186.882 11.456C186.186 12.056 185.754 12.908 185.586 14.012H193.29Z" fill="#01C8FF"/>
</svg>
